<?xml version="1.0" encoding="UTF-8" standalone="no"?>
<!-- Created with Inkscape (http://www.inkscape.org/) -->

<svg
   xmlns:dc="http://purl.org/dc/elements/1.1/"
   xmlns:cc="http://creativecommons.org/ns#"
   xmlns:rdf="http://www.w3.org/1999/02/22-rdf-syntax-ns#"
   xmlns:svg="http://www.w3.org/2000/svg"
   xmlns="http://www.w3.org/2000/svg"
   xmlns:xlink="http://www.w3.org/1999/xlink"
   xmlns:sodipodi="http://sodipodi.sourceforge.net/DTD/sodipodi-0.dtd"
   xmlns:inkscape="http://www.inkscape.org/namespaces/inkscape"
   width="512"
   height="512"
   id="svg2"
   version="1.1"
   inkscape:version="0.48.4 r9939"
   sodipodi:docname="dleely-icon.svg"
   inkscape:export-filename="C:\Users\ahs\Desktop\dleely-icon-512.png"
   inkscape:export-xdpi="90"
   inkscape:export-ydpi="90">
  <defs
     id="defs4">
    <linearGradient
       id="linearGradient7155">
      <stop
         style="stop-color:#4d4d4d;stop-opacity:1;"
         offset="0"
         id="stop7157" />
      <stop
         style="stop-color:#c8c8c8;stop-opacity:1;"
         offset="1"
         id="stop7159" />
    </linearGradient>
    <linearGradient
       id="linearGradient6194">
      <stop
         style="stop-color:#894343;stop-opacity:1;"
         offset="0"
         id="stop6196" />
      <stop
         id="stop6202"
         offset="0.12008102"
         style="stop-color:#ad5757;stop-opacity:1;" />
      <stop
         style="stop-color:#894343;stop-opacity:1;"
         offset="0.23007089"
         id="stop6204" />
      <stop
         id="stop6206"
         offset="0.2681416"
         style="stop-color:#602f2f;stop-opacity:1;" />
      <stop
         style="stop-color:#8e4545;stop-opacity:1;"
         offset="0.51156449"
         id="stop6208" />
      <stop
         id="stop7306"
         offset="0.72186309"
         style="stop-color:#844a4a;stop-opacity:1;" />
      <stop
         style="stop-color:#bc7878;stop-opacity:1;"
         offset="1"
         id="stop6198" />
    </linearGradient>
    <linearGradient
       id="linearGradient6150">
      <stop
         style="stop-color:#ffffff;stop-opacity:0;"
         offset="0"
         id="stop6152" />
      <stop
         style="stop-color:#ffffff;stop-opacity:1;"
         offset="1"
         id="stop6154" />
    </linearGradient>
    <linearGradient
       id="linearGradient3768">
      <stop
         id="stop3784"
         offset="0"
         style="stop-color:#910000;stop-opacity:1;" />
      <stop
         id="stop3776"
         offset="1"
         style="stop-color:#9c0000;stop-opacity:1;" />
    </linearGradient>
    <filter
       id="filter5984"
       inkscape:label="Glow"
       inkscape:menu="Shadows and Glows"
       inkscape:menu-tooltip="Glow of object's own color at the edges"
       color-interpolation-filters="sRGB">
      <feGaussianBlur
         id="feGaussianBlur5986"
         stdDeviation="5"
         result="result91" />
      <feComposite
         id="feComposite5988"
         in2="result91"
         in="SourceGraphic"
         operator="over" />
    </filter>
    <filter
       id="filter6020"
       inkscape:label="Glow"
       inkscape:menu="Shadows and Glows"
       inkscape:menu-tooltip="Glow of object's own color at the edges"
       color-interpolation-filters="sRGB">
      <feGaussianBlur
         id="feGaussianBlur6022"
         stdDeviation="5"
         result="result91" />
      <feComposite
         id="feComposite6024"
         in2="result91"
         in="SourceGraphic"
         operator="over" />
    </filter>
    <linearGradient
       inkscape:collect="always"
       xlink:href="#linearGradient6194"
       id="linearGradient6200"
       x1="325.71429"
       y1="402.36215"
       x2="325.71429"
       y2="601.7298"
       gradientUnits="userSpaceOnUse"
       gradientTransform="translate(106,-76.000003)" />
    <filter
       id="filter6286"
       inkscape:label="Darken edges"
       inkscape:menu="Shadows and Glows"
       inkscape:menu-tooltip="Darken the edges with an inner blur"
       color-interpolation-filters="sRGB">
      <feGaussianBlur
         id="feGaussianBlur6288"
         result="result6"
         stdDeviation="1.5" />
      <feComposite
         id="feComposite6290"
         in2="result6"
         operator="atop"
         in="SourceGraphic"
         result="result8" />
      <feComposite
         id="feComposite6292"
         in2="SourceAlpha"
         in="result8"
         operator="atop"
         result="result9" />
    </filter>
    <filter
       id="filter6302"
       inkscape:label="Glow"
       inkscape:menu="Shadows and Glows"
       inkscape:menu-tooltip="Glow of object's own color at the edges"
       color-interpolation-filters="sRGB">
      <feGaussianBlur
         id="feGaussianBlur6304"
         result="result6"
         stdDeviation="1.5" />
      <feComposite
         id="feComposite6306"
         in2="result6"
         operator="atop"
         in="SourceGraphic"
         result="result8" />
      <feComposite
         id="feComposite6308"
         in2="SourceAlpha"
         in="result8"
         operator="atop"
         result="fbSourceGraphic" />
      <feColorMatrix
         result="fbSourceGraphicAlpha"
         in="fbSourceGraphic"
         values="0 0 0 -1 0 0 0 0 -1 0 0 0 0 -1 0 0 0 0 1 0"
         id="feColorMatrix6310" />
      <feGaussianBlur
         id="feGaussianBlur6312"
         stdDeviation="5"
         result="result91"
         in="fbSourceGraphic" />
      <feComposite
         id="feComposite6314"
         in2="result91"
         in="fbSourceGraphic"
         operator="over" />
    </filter>
    <filter
       id="filter6316"
       inkscape:label="Darken edges"
       inkscape:menu="Shadows and Glows"
       inkscape:menu-tooltip="Darken the edges with an inner blur"
       color-interpolation-filters="sRGB">
      <feGaussianBlur
         id="feGaussianBlur6318"
         result="result6"
         stdDeviation="1.5" />
      <feComposite
         id="feComposite6320"
         in2="result6"
         operator="atop"
         in="SourceGraphic"
         result="result8" />
      <feComposite
         id="feComposite6322"
         in2="SourceAlpha"
         in="result8"
         operator="atop"
         result="result9" />
    </filter>
    <linearGradient
       inkscape:collect="always"
       xlink:href="#linearGradient6150-8"
       id="linearGradient6798-6"
       x1="483.86307"
       y1="447.40707"
       x2="503.56104"
       y2="447.40707"
       gradientUnits="userSpaceOnUse"
       gradientTransform="translate(-0.25253814,-5.555839)" />
    <linearGradient
       id="linearGradient6150-8">
      <stop
         style="stop-color:#ffffff;stop-opacity:0;"
         offset="0"
         id="stop6152-8" />
      <stop
         style="stop-color:#ffffff;stop-opacity:1;"
         offset="1"
         id="stop6154-2" />
    </linearGradient>
    <linearGradient
       id="linearGradient6819">
      <stop
         style="stop-color:#ffffff;stop-opacity:0;"
         offset="0"
         id="stop6821" />
      <stop
         style="stop-color:#ffffff;stop-opacity:1;"
         offset="1"
         id="stop6823" />
    </linearGradient>
    <linearGradient
       inkscape:collect="always"
       xlink:href="#linearGradient6150-8"
       id="linearGradient6881"
       gradientUnits="userSpaceOnUse"
       gradientTransform="matrix(1.5422946,0,0,1.20299,-90.447157,-229.71394)"
       x1="491.87939"
       y1="457.24963"
       x2="503.56104"
       y2="447.40707" />
    <linearGradient
       inkscape:collect="always"
       xlink:href="#linearGradient6150-8"
       id="linearGradient6885"
       gradientUnits="userSpaceOnUse"
       gradientTransform="matrix(1.5422946,0,0,1.20299,-90.447157,-152.24473)"
       x1="491.87939"
       y1="457.24963"
       x2="503.56104"
       y2="447.40707" />
    <linearGradient
       inkscape:collect="always"
       xlink:href="#linearGradient6150-8"
       id="linearGradient6889"
       gradientUnits="userSpaceOnUse"
       gradientTransform="matrix(1.5422946,0,0,1.20299,-90.447157,-76.294517)"
       x1="491.87939"
       y1="457.24963"
       x2="503.56104"
       y2="447.40707" />
    <linearGradient
       inkscape:collect="always"
       xlink:href="#linearGradient6150-8"
       id="linearGradient6893"
       gradientUnits="userSpaceOnUse"
       gradientTransform="matrix(1.5422946,0,0,1.20299,-90.447157,-1.8633199)"
       x1="491.87939"
       y1="457.24963"
       x2="503.56104"
       y2="447.40707" />
    <linearGradient
       inkscape:collect="always"
       xlink:href="#linearGradient6150-8"
       id="linearGradient6897"
       gradientUnits="userSpaceOnUse"
       gradientTransform="matrix(1.5422946,0,0,1.20299,-90.447157,74.086879)"
       x1="491.87939"
       y1="457.24963"
       x2="503.56104"
       y2="447.40707" />
    <filter
       inkscape:collect="always"
       id="filter7250"
       color-interpolation-filters="sRGB">
      <feGaussianBlur
         inkscape:collect="always"
         stdDeviation="1.659375"
         id="feGaussianBlur7252" />
    </filter>
    <clipPath
       clipPathUnits="userSpaceOnUse"
       id="clipPath7263">
      <rect
         style="opacity:0.70353986;fill:#000000;fill-opacity:1;stroke:none"
         id="rect7265"
         width="120.5"
         height="125.5"
         x="253.5"
         y="824.86218" />
    </clipPath>
    <linearGradient
       inkscape:collect="always"
       xlink:href="#linearGradient7155"
       id="linearGradient7304"
       gradientUnits="userSpaceOnUse"
       gradientTransform="translate(2.1715795,-27.91421)"
       x1="307.94501"
       y1="964.15063"
       x2="307.94501"
       y2="856.31158" />
    <linearGradient
       inkscape:collect="always"
       xlink:href="#linearGradient6194"
       id="linearGradient7316"
       x1="242.74474"
       y1="173.64941"
       x2="243.74474"
       y2="173.64941"
       gradientUnits="userSpaceOnUse" />
    <linearGradient
       inkscape:collect="always"
       xlink:href="#linearGradient6194"
       id="linearGradient7344"
       gradientUnits="userSpaceOnUse"
       x1="242.74474"
       y1="173.64941"
       x2="243.74474"
       y2="173.64941" />
    <linearGradient
       inkscape:collect="always"
       xlink:href="#linearGradient6194"
       id="linearGradient7359"
       gradientUnits="userSpaceOnUse"
       x1="242.74474"
       y1="173.64941"
       x2="243.74474"
       y2="173.64941"
       gradientTransform="translate(139,220.36218)" />
  </defs>
  <sodipodi:namedview
     id="base"
     pagecolor="#ffffff"
     bordercolor="#666666"
     borderopacity="1.0"
     inkscape:pageopacity="0.0"
     inkscape:pageshadow="2"
     inkscape:zoom="0.25"
     inkscape:cx="-548"
     inkscape:cy="-112.87273"
     inkscape:document-units="px"
     inkscape:current-layer="g7254"
     showgrid="false"
     inkscape:window-width="1366"
     inkscape:window-height="705"
     inkscape:window-x="-8"
     inkscape:window-y="-8"
     inkscape:window-maximized="1"
     fit-margin-top="0"
     fit-margin-left="0"
     fit-margin-right="0"
     fit-margin-bottom="0" />
  <metadata
     id="metadata7">
    <rdf:RDF>
      <cc:Work
         rdf:about="">
        <dc:format>image/svg+xml</dc:format>
        <dc:type
           rdf:resource="http://purl.org/dc/dcmitype/StillImage" />
        <dc:title></dc:title>
      </cc:Work>
    </rdf:RDF>
  </metadata>
  <g
     inkscape:label="Layer 1"
     inkscape:groupmode="layer"
     id="layer1"
     transform="translate(-205,-220.36218)">
    <rect
       style="fill:#a35d5d;fill-opacity:1;stroke:none"
       id="rect2991"
       width="37.975101"
       height="37.975101"
       x="650.87555"
       y="305.47421" />
    <rect
       y="381.42441"
       x="650.87555"
       height="37.975101"
       width="37.975101"
       id="rect3792"
       style="fill:#a3a35d;fill-opacity:1;stroke:none" />
    <rect
       style="fill:#a35da2;fill-opacity:1;stroke:none"
       id="rect3794"
       width="37.975101"
       height="37.975101"
       x="650.87555"
       y="457.37463" />
    <rect
       y="533.32483"
       x="650.87555"
       height="37.975101"
       width="37.975101"
       id="rect3796"
       style="fill:#5da35d;fill-opacity:1;stroke:none" />
    <rect
       style="fill:#5d5da3;fill-opacity:1;stroke:none"
       id="rect3798"
       width="37.975101"
       height="37.975101"
       x="650.87555"
       y="609.27502" />
    <rect
       style="fill:#e6e6e6;fill-opacity:1;stroke:none;filter:url(#filter6302)"
       id="rect2985"
       width="250"
       height="300"
       x="336"
       y="326.36218"
       ry="0"
       transform="matrix(1.5190041,0,0,1.5190041,-239.26088,-247.23392)" />
    <rect
       style="fill:#4d4d4d;fill-opacity:1;stroke:none;filter:url(#filter6316)"
       id="rect2987"
       width="50"
       height="300"
       x="336"
       y="326.36218"
       transform="matrix(1.5190041,0,0,1.5190041,-239.26088,-247.23392)" />
    <rect
       style="fill:#e6e6e6;fill-opacity:1;stroke:none"
       id="rect7207"
       width="240.76213"
       height="220.2556"
       x="383.53079"
       y="365.47491" />
    <g
       id="g7254"
       transform="matrix(1.5190041,0,0,1.5190041,16.691311,-870.78508)"
       clip-path="url(#clipPath7263)">
      <rect
         y="827.87225"
         x="259.91202"
         height="108.54089"
         width="105.00536"
         id="rect7153"
         style="fill:url(#linearGradient7304);fill-opacity:1;stroke:none" />
      <path
         inkscape:connector-curvature="0"
         id="rect7121"
         d="m 243,827.93566 0,121.5 144,0 0,-121.5 -144,0 z m 72.40625,12.84375 c 5.53119,10e-5 10.63275,0.34385 15.34375,1 4.71086,0.65634 8.82805,1.88291 12.34375,3.6875 3.51554,1.80478 6.57804,4.06259 9.15625,6.78125 2.57803,2.71883 4.67178,5.72664 6.3125,9.03125 1.64052,3.30476 2.91396,7.00788 3.78125,11.0625 0.86708,4.05475 1.28115,8.18756 1.28125,12.40625 -10e-5,8.06254 -1.39854,15.74222 -4.1875,23.03125 -2.78916,7.28908 -6.93759,13.3047 -12.46875,18.0625 -5.53133,4.75782 -11.64851,7.79688 -18.375,9.15625 -6.72662,1.35938 -14.37505,2.0625 -22.90625,2.0625 l -23.90625,-0.15625 c -1.50002,0 -5.95314,0.0625 -13.40625,0.15625 l 1.875,-24.46875 1.40625,-30.59375 0.9375,-30.4375 c 0.0469,-1.31241 0.0625,-4.82803 0.0625,-10.5 5.20311,0.0938 10.09373,0.15635 14.6875,0.15625 3.42184,10e-5 7.92965,-0.078 13.53125,-0.21875 5.60152,-0.14053 10.45307,-0.21865 14.53125,-0.21875 z m -4.375,14.625 c -5.29692,8e-5 -11.34379,0.0938 -18.1875,0.28125 l -2.90625,66.375 c 3.84372,0.18751 7.65621,0.28126 11.40625,0.28125 4.26558,10e-6 8.21089,-0.20311 11.84375,-0.625 3.63276,-0.42186 6.74994,-1.08592 9.375,-2 2.62493,-0.91404 5.25774,-2.51561 7.90625,-4.8125 2.64836,-2.29685 4.84367,-4.94529 6.53125,-7.96875 1.68742,-3.0234 2.95305,-6.39059 3.84375,-10.09375 0.89054,-3.70308 1.34367,-7.49995 1.34375,-11.34375 -8e-5,-7.03119 -1.20321,-12.789 -3.59375,-17.3125 -2.3907,-4.52336 -5.52351,-7.78899 -9.4375,-9.78125 -3.91413,-1.99211 -9.96881,-2.99992 -18.125,-3 z"
         style="fill:#000000;fill-opacity:1;stroke:none;filter:url(#filter7250)" />
      <path
         inkscape:connector-curvature="0"
         id="rect7163"
         d="m 222.53125,794.53125 0,178.1875 191.625,0 0,-178.1875 -191.625,0 z m 92.875,44.6875 c 5.53119,10e-5 10.63275,0.34385 15.34375,1 4.71086,0.65634 8.82805,1.88291 12.34375,3.6875 3.51554,1.80478 6.57804,4.06259 9.15625,6.78125 2.57803,2.71883 4.67178,5.72664 6.3125,9.03125 1.64052,3.30476 2.91396,7.00788 3.78125,11.0625 0.86708,4.05475 1.28115,8.18756 1.28125,12.40625 -10e-5,8.06254 -1.39854,15.74222 -4.1875,23.03125 -2.78916,7.28908 -6.93759,13.3047 -12.46875,18.0625 -5.53133,4.75782 -11.64851,7.79688 -18.375,9.15625 -6.72662,1.35938 -14.37505,2.0625 -22.90625,2.0625 l -23.90625,-0.15625 c -1.50002,0 -5.95314,0.0625 -13.40625,0.15625 l 1.875,-24.46875 1.40625,-30.59375 0.9375,-30.4375 c 0.0469,-1.31241 0.0625,-4.82803 0.0625,-10.5 5.20311,0.0938 10.09373,0.15635 14.6875,0.15625 3.42184,10e-5 7.92965,-0.078 13.53125,-0.21875 5.60152,-0.14053 10.45307,-0.21865 14.53125,-0.21875 z m -4.375,14.625 c -5.29692,8e-5 -11.34379,0.0938 -18.1875,0.28125 L 289.9375,920.5 c 3.84372,0.18751 7.65621,0.28126 11.40625,0.28125 4.26558,10e-6 8.21089,-0.20311 11.84375,-0.625 3.63276,-0.42186 6.74994,-1.08592 9.375,-2 2.62493,-0.91404 5.25774,-2.51561 7.90625,-4.8125 2.64836,-2.29685 4.84367,-4.94529 6.53125,-7.96875 1.68742,-3.0234 2.95305,-6.39059 3.84375,-10.09375 0.89054,-3.70308 1.34367,-7.49995 1.34375,-11.34375 -8e-5,-7.03119 -1.20321,-12.789 -3.59375,-17.3125 -2.3907,-4.52336 -5.52351,-7.78899 -9.4375,-9.78125 -3.91413,-1.99211 -9.96881,-2.99992 -18.125,-3 z"
         style="fill:#e6e6e6;fill-opacity:1;stroke:none" />
    </g>
    <path
       style="fill:url(#linearGradient6200);fill-opacity:1;stroke:none;filter:url(#filter6286)"
       d="m 406,326.36215 50,0 0,200 -25,-24.99997 -25,24.99997 z"
       id="rect2989"
       inkscape:connector-curvature="0"
       sodipodi:nodetypes="cccccc"
       transform="matrix(1.5190041,0,0,1.5190041,-239.26088,-247.23392)" />
    <path
       style="opacity:0.5;fill:url(#linearGradient6881);fill-opacity:1;stroke:none"
       d="m 655.81227,307.77219 0,1.51901 28.86107,0 0,30.38009 1.51901,0 0,-30.38009 0,-1.51901 -30.38008,0 z"
       id="rect6790"
       inkscape:connector-curvature="0" />
    <path
       inkscape:connector-curvature="0"
       id="path6883"
       d="m 655.81227,385.24141 0,1.519 28.86107,0 0,30.38008 1.51901,0 0,-30.38008 0,-1.519 -30.38008,0 z"
       style="opacity:0.5;fill:url(#linearGradient6885);fill-opacity:1;stroke:none" />
    <path
       style="opacity:0.5;fill:url(#linearGradient6889);fill-opacity:1;stroke:none"
       d="m 655.81227,461.19161 0,1.519 28.86107,0 0,30.38008 1.51901,0 0,-30.38008 0,-1.519 -30.38008,0 z"
       id="path6887"
       inkscape:connector-curvature="0" />
    <path
       inkscape:connector-curvature="0"
       id="path6891"
       d="m 655.81227,535.62281 0,1.519 28.86107,0 0,30.38008 1.51901,0 0,-30.38008 0,-1.519 -30.38008,0 z"
       style="opacity:0.5;fill:url(#linearGradient6893);fill-opacity:1;stroke:none" />
    <path
       style="opacity:0.5;fill:url(#linearGradient6897);fill-opacity:1;stroke:none"
       d="m 655.81227,611.57302 0,1.51901 28.86107,0 0,30.38007 1.51901,0 0,-30.38007 0,-1.51901 -30.38008,0 z"
       id="path6895"
       inkscape:connector-curvature="0" />
    <g
       id="g7334">
      <path
         style="fill:none;stroke:#000000;stroke-width:1;stroke-linecap:butt;stroke-linejoin:miter;stroke-miterlimit:4;stroke-opacity:1;stroke-dasharray:4, 4;stroke-dashoffset:0"
         d="m 448.49473,251.07246 0,286.37825"
         id="path7332"
         inkscape:connector-curvature="0" />
      <path
         transform="translate(205,220.36218)"
         inkscape:connector-curvature="0"
         id="path7308"
         d="m 243.24473,30.460284 0,286.378246"
         style="fill:none;stroke:url(#linearGradient7316);stroke-width:1;stroke-linecap:butt;stroke-linejoin:miter;stroke-opacity:1;stroke-miterlimit:4;stroke-dasharray:4, 4;stroke-dashoffset:0" />
    </g>
    <g
       id="g7362">
      <path
         inkscape:connector-curvature="0"
         id="path7340"
         d="m 381.99473,251.07246 0,286.37825"
         style="fill:none;stroke:#000000;stroke-width:1;stroke-linecap:butt;stroke-linejoin:miter;stroke-miterlimit:4;stroke-opacity:1;stroke-dasharray:4, 4;stroke-dashoffset:0" />
      <path
         style="fill:none;stroke:url(#linearGradient7359);stroke-width:1;stroke-linecap:butt;stroke-linejoin:miter;stroke-miterlimit:4;stroke-opacity:1;stroke-dasharray:4, 4;stroke-dashoffset:0"
         d="m 382.24473,250.82246 0,286.37825"
         id="path7342"
         inkscape:connector-curvature="0" />
    </g>
    <g
       id="g7366">
      <path
         inkscape:connector-curvature="0"
         id="path7346"
         d="m 383,537.86218 32.5,-32.5 29.125,29.125"
         style="fill:none;stroke:#000000;stroke-width:1;stroke-linecap:butt;stroke-linejoin:miter;stroke-miterlimit:4;stroke-opacity:1;stroke-dasharray:4, 4;stroke-dashoffset:0" />
      <path
         style="fill:none;stroke:#bc7878;stroke-width:1;stroke-linecap:butt;stroke-linejoin:miter;stroke-opacity:1;stroke-miterlimit:4;stroke-dasharray:4, 4;stroke-dashoffset:0"
         d="m 178,317.25 32.5,-32.5 29.125,29.125"
         id="path7356"
         inkscape:connector-curvature="0"
         transform="translate(205,220.36218)" />
    </g>
  </g>
</svg>
